# xmcd
# 
# Track frame offsets:
#     187
#     13902
#     28117
#     44185
#     59772
#     73987
#     89977
#     109185
#     126867
#     141837
#     160852
# 
# Disc length: 2360
# 
# Revision: 4
# Processed by: cddbd v1.5.2PL0 Copyright (c) Steve Scherf et al.
# Submitted via: fre:ac v1.0.17
# 
DISCID=b309360b
DTITLE=Alabama - Very Best Of Disc 1
DYEAR=1991
DGENRE=Country
TTITLE0=High Cotton
TTITLE1=Old Flame
TTITLE2=The Closer You Get
TTITLE3=Fallin' Again
TTITLE4=Why Lady Why
TTITLE5=If I Had You
TTITLE6=You've Got The Touch
TTITLE7=(There's A) Fire In The Night
TTITLE8=Love In The First Degree
TTITLE9=There's No Way
TTITLE10=When We Make Love
EXTD=
EXTT0=
EXTT1=
EXTT2=
EXTT3=
EXTT4=
EXTT5=
EXTT6=
EXTT7=
EXTT8=
EXTT9=
EXTT10=
PLAYORDER=
